<?xml version="1.0" encoding="UTF-8"?>
<svg width="40px" height="33px" viewBox="0 0 40 33" version="1.1" xmlns="http://www.w3.org/2000/svg" xmlns:xlink="http://www.w3.org/1999/xlink">
    <!-- Generator: Sketch 51.3 (57544) - http://www.bohemiancoding.com/sketch -->
    <title>g32866</title>
    <desc>Created with Sketch.</desc>
    <defs></defs>
    <g id="Page-1" stroke="none" stroke-width="1" fill="none" fill-rule="evenodd">
        <g id="g32866" transform="translate(20.409268, 15.935407) scale(1, -1) translate(-20.409268, -15.935407) translate(-0.090732, -0.564593)" fill="#FFFFFF" fill-rule="nonzero">
            <g id="g32872" transform="translate(0.425402, 8.109035)">
                <path d="M6.93706294,5.84801865 C4.75241026,6.80876457 3.46501072,8.64002984 3.65047646,10.1028699 C3.75406993,10.9232634 3.75741166,11.2198415 3.45832727,11.5698872 C3.16509091,11.912414 2.72064149,12.0477538 2.30793846,11.9633753 C2.4399366,11.9282872 2.56274499,11.8539338 2.65881958,11.7428214 C2.91028438,11.4487497 2.87519627,11.0059711 2.58195991,10.7545063 C2.55522611,10.7319497 2.52598601,10.7144056 2.49674592,10.6960261 C2.343862,11.2891823 1.84510956,11.724442 1.25195338,11.7252774 C0.764061538,11.7252774 0.33882704,11.4312056 0.118273193,10.9967814 C0.240246154,11.0878434 0.387282051,11.141311 0.546849417,11.141311 C0.965400466,11.141311 1.30458555,10.7712149 1.30458555,10.3159049 C1.30458555,9.85975944 0.964565035,9.49049883 0.546013986,9.49049883 C0.387282051,9.49049883 0.239410723,9.54396643 0.117437762,9.63502844 C0.337991608,9.2006042 0.762390676,8.9065324 1.25028252,8.9065324 C1.31628159,8.9065324 1.37977436,8.91321585 1.4424317,8.92324103 C1.62204942,7.74778928 2.7289958,7.1546331 2.7289958,7.1546331 C2.7289958,7.1546331 2.38479814,6.45036457 2.63709837,5.61994592 C2.94871422,4.59487179 2.45580979,3.67422657 2.46834126,3.67422657 C3.56192075,3.98667786 3.7908289,5.10782657 3.81087925,5.10782657 C3.94371282,5.1111683 5.37647739,5.04099207 5.93120373,3.16377809 C6.45084196,1.40101818 4.92116737,0.395158974 4.92116737,0.395158974 C5.89444476,0.250629371 6.7649641,1.05598508 6.76412867,1.05765594 C6.76078695,1.06016224 6.93037949,0.866342191 7.52019394,0.421892774 C7.6020662,0.360070862 7.60540793,1.91397296 7.5243711,2.02842704 C6.62126993,3.30747226 6.72235711,5.07190303 6.93706294,5.84801865" id="path32874"></path>
            </g>
            <g id="g32876" transform="translate(12.514911, 24.594677)">
                <path d="M2.50629371,0.835431235 C2.642469,0.904772028 3.40354685,1.30410816 3.36261072,1.97161772 C3.32501632,2.59902657 2.90897156,2.99585641 2.88892121,2.9875021 C2.86302284,2.97747692 3.07772867,1.93485874 1.74270956,1.61739487 C0.708445688,1.37177809 0.529663403,0.695914219 0.537182284,0.507942191 C0.537182284,0.507942191 1.64162238,0.393488112 2.50629371,0.835431235" id="path32878"></path>
            </g>
            <g id="g32880" transform="translate(7.493293, 11.046913)">
                <path d="M0.835431235,0 C1.25815944,2.0033641 2.6800634,2.56477389 3.16461352,2.66251935 C3.20805594,3.09694359 3.36929417,3.64832821 3.50045688,4.06353753 C2.67337995,4.03262657 1.4737007,3.74356737 0.721812587,2.74021445 C0.482043823,2.21974079 0.373437762,0.985808858 0.835431235,0" id="path32882"></path>
            </g>
            <g id="g32884" transform="translate(7.933816, 14.858417)">
                <path d="M3.34172494,1.08904429 C3.3459021,1.10157576 3.35175012,1.11661352 3.35759814,1.13332214 L3.78116177,2.45246807 C3.21641026,2.44327832 2.13786853,2.34469744 1.38598042,1.62455571 C0.842950117,1.11327179 0.522144522,0.470825175 0.482879254,0.0923748252 C1.73268438,1.19597949 3.34172494,1.08904429 3.34172494,1.08904429" id="path32886"></path>
            </g>
            <g id="g32888" transform="translate(1.560228, 20.648763)">
                <path d="M3.34172494,1.67086247 C3.37764848,1.7385324 3.5572662,2.08273007 3.54807646,2.08523636 C1.31914592,2.68340513 0.332501632,1.71764662 0.332501632,1.71764662 C0.332501632,1.71764662 1.700938,2.19885501 2.82542844,0.612371096 C2.83378275,0.619054545 2.91983217,0.808697436 3.07438695,1.12449044 L3.07939953,1.13535105 C3.28324476,0.988315152 5.09195338,-0.258983683 6.8497007,0.321641026 L7.46290723,1.19717296 C5.44032821,0.313286713 3.50797576,1.55975012 3.34172494,1.67086247" id="path32890"></path>
            </g>
            <g id="g32892" transform="translate(5.391599, 17.340298)">
                <path d="M11.6960373,10.0251748 C11.6918601,10.0301874 11.687683,10.0352 11.6843413,10.041048 C11.6492531,10.0861613 11.4236867,7.53057716 8.43952634,7.19640466 C8.16884662,7.17802517 7.64837296,7.23566993 7.12957016,7.33257995 C7.04435618,7.35346573 6.94995245,7.37351608 6.84886527,7.39189557 C6.84635897,7.39189557 6.84385268,7.392731 6.84218182,7.392731 C5.58318695,7.68763823 4.60907413,7.3392634 4.4478359,7.13708904 C4.29411655,6.943269 4.03847459,6.10282517 3.29076364,6.02930723 C3.25818182,6.02680093 3.2256,6.02513007 3.19301818,6.02345921 L3.19134732,6.02345921 C3.18466387,6.02345921 3.17714499,6.02345921 3.17046154,6.02345921 C3.1453986,6.02345921 3.12284196,6.02262378 3.10279161,6.02178834 C2.19384242,6.01092774 1.02006154,6.30082238 0.495410723,5.0710676 C0.495410723,5.0710676 0.780292774,5.23397669 1.13952821,5.25653333 L2.04513566,4.58818834 L3.71599814,4.90481678 C3.77197203,4.91484196 3.80455385,4.92068998 3.80455385,4.92068998 L4.93155058,3.81624988 L2.85132681,2.98833753 C2.54388811,2.97329977 2.26568951,3.09694359 2.26568951,3.09694359 L3.06269091,1.10360466 C3.06269091,1.10360466 3.28575105,2.09609697 4.2740662,2.5355338 C5.58569324,3.11782937 6.23315245,2.55391329 6.2506965,2.57312821 C6.2506965,2.57312821 4.83464056,2.12283077 4.26988904,0.140352448 C5.45703683,0.942366434 6.54059114,0.76441958 6.58069184,0.783634499 L7.87059767,4.71016131 C7.73943497,4.78284382 5.91485315,6.14543217 5.91485315,6.14543217 C5.91485315,6.14543217 5.47374545,5.93323263 4.76028718,5.95161212 C4.76112261,5.95244755 4.76195804,5.95244755 4.7636289,5.95328298 C4.72352821,5.96330816 4.69178182,5.99672541 4.68509837,6.04016783 C4.68008578,6.07692681 4.69512354,6.11117949 4.72102191,6.13457156 C5.09195338,6.23649417 5.81042424,6.51302191 6.12287552,6.79122051 L6.1704951,6.80041026 L8.26742751,5.24817902 C8.74111702,5.68678042 9.60161119,6.08444569 11.1137417,6.40942844 C12.046083,7.05772308 12.8455907,8.65840932 11.6960373,10.0251748 M4.750262,5.96497902 L4.74942657,5.96915618 C4.750262,5.96748531 4.75193287,5.96581445 4.75360373,5.96497902 C4.7527683,5.96497902 4.75109744,5.96497902 4.750262,5.96497902" id="path32894"></path>
            </g>
            <g id="g32896" transform="translate(13.986873, 12.791623)">
                <path d="M0.253613054,0 C0.252777622,0.00501258741 0.252777622,0.00918974359 0.252777622,0.014202331 C0.253613054,0.0100251748 0.254448485,0.00668344988 0.255283916,0.00250629371 C0.254448485,0.00167086247 0.253613054,0 0.253613054,0" id="path32898"></path>
            </g>
            <g id="g32900" transform="translate(11.027919, 10.325931)">
                <path d="M23.3920746,15.0377622 C22.9392709,15.2081902 21.3836979,15.5406918 21.7019972,16.4638434 C22.135586,17.7203319 24.6552466,18.4463217 24.6552466,18.4463217 C17.4011972,17.4621837 11.8739841,15.1597352 8.2030993,11.2891823 C8.14294825,11.2223478 8.08196177,11.1546779 8.02181072,11.0878434 C6.42028904,9.31756457 5.78703217,7.7135366 5.61994592,7.39941445 C6.21393753,8.88731748 9.15632634,15.9592429 18.7069762,17.9843282 C17.7988625,18.0712131 16.5014378,18.3134881 16.3126303,18.9651245 C16.1004308,19.6944559 17.0227469,20.7713268 17.9191646,21.3486098 C9.62166154,19.0946163 6.00925688,12.3518508 4.00672821,6.83549837 C4.00672821,6.83549837 3.43278695,6.5314014 3.14874033,5.92654918 C3.44448298,6.64000746 4.86889324,10.1755524 4.57649231,12.3652177 C4.57649231,12.3652177 3.57313939,12.0803357 3.07104522,11.5632037 C2.54973613,10.0026182 1.07687086,5.88227133 0.687559907,4.70264242 C0.178782284,3.0944373 0.234756177,1.31162704 1.65666014,0.71011655 C1.92483357,0.610700233 2.23394312,0.558068065 2.58816597,0.558068065 C3.32919347,0.558068065 4.65001026,0.65581352 6.73691748,1.12281958 C7.27911235,1.24395711 7.82631981,1.40101818 8.49132308,1.5940028 C8.75197762,1.67002704 9.07946667,1.76108904 9.35432354,1.83794872 C9.44204382,3.3701296 8.7728634,4.14123263 8.43117203,4.45201305 C7.85723077,4.92987972 7.05855851,5.31501352 5.70098275,5.35260793 C7.19974639,5.84467692 8.54562611,5.24734359 8.54562611,5.24734359 C8.54562611,5.24734359 10.4913455,6.87894079 12.8163506,5.643338 C12.8163506,5.643338 14.5598956,8.37018555 18.0854154,6.81962517 C18.673559,11.0410592 22.4647459,10.6534191 22.5198844,10.6759758 C22.4555562,10.7252662 19.1848429,13.5974788 23.3920746,15.0377622 Z M16.674372,8.38355245 C16.6559925,8.39859021 14.8038415,9.91656876 12.4487608,9.91656876 C12.3217753,9.91656876 12.1939543,9.91155618 12.0686396,9.90320186 C10.7319497,9.80963357 9.76452028,9.41948718 8.85640653,8.6016 C9.61831981,8.59825828 11.007642,8.39859021 11.9199329,7.13458275 L12.0786648,6.91569977 L11.8614527,7.076938 C11.8480858,7.08612774 10.5372942,8.04687366 9.01680932,8.04687366 C8.59909371,8.04687366 8.18639068,7.96750769 7.7912317,7.81128205 C7.77870023,7.80543403 7.19724009,7.54394406 6.89899114,7.31085874 C6.77785361,7.21645501 6.53474312,7.02012867 6.53474312,7.02012867 L6.36598601,6.88395338 L6.68428531,7.45288205 C7.3284028,8.60410629 8.35264149,9.5189035 9.56735851,10.0285166 C9.87145548,10.1680336 10.2064634,10.2749688 10.5615217,10.3443096 C10.982579,10.4387133 11.4170033,10.4863329 11.8514275,10.4863329 C13.795476,10.4863329 15.5749445,9.74196364 16.7320168,8.44286807 L16.674372,8.38355245 Z M14.6192112,13.0210312 L14.8138667,13.0252084 C14.9007515,13.0268793 14.9909781,13.0285501 15.0828755,13.0285501 C16.0511403,13.0285501 18.0002014,12.9057417 20.1739935,12.082842 L20.149766,12.003476 C20.1288802,12.0076531 18.0244289,12.4871907 15.3827953,12.4871907 C15.0269016,12.4871907 14.6710079,12.4763301 14.324304,12.4537734 C12.3017249,12.325117 10.7536709,11.4671291 10.0920093,11.1003748 L9.92993566,11.0109837 L9.87813893,11.0886788 L9.90737902,11.1129063 C13.5699096,14.148028 17.743724,14.8506256 20.5641399,15.1154573 L20.5766713,15.0327497 C20.5307226,15.0235599 16.1046079,14.1313193 14.1095981,13.0034872 C14.2892159,13.0135124 14.4345809,13.0168541 14.6192112,13.0210312 Z" id="path32902"></path>
            </g>
            <g id="g32904" transform="translate(1.466910, 0.273437)">
                <path d="M14.202331,10.0251748 C13.431228,9.91656876 12.7361492,9.85808858 12.148841,9.85808858 C11.2173352,9.85808858 10.6024578,10.1521604 10.2014508,10.4930163 C9.62082611,10.9073902 9.27161585,11.5690517 9.17303497,12.532304 C9.17303497,12.532304 8.35932494,12.3167627 7.79624429,11.3601939 C7.52138741,10.8931879 7.28161865,9.99175758 7.31754219,9.63920559 C7.36014918,9.21898368 7.55981725,7.71520746 6.54894545,6.6090965 C6.54894545,6.6090965 6.60157762,6.16965967 6.360138,5.51384615 C6.05854732,4.76947692 5.39270862,3.40354685 4.23062378,3.00003357 C4.21224429,2.98165408 3.67172028,2.9474014 3.26319441,3.50212774 C2.31915711,4.78702098 1.37762611,4.23480093 1.0484662,3.88559068 C1.1286676,3.93404569 1.22140047,3.96161492 1.32165221,3.96161492 C1.61655944,3.96161492 1.85632821,3.72268159 1.85632821,3.42777436 C1.85632821,3.1320317 1.51964942,2.90228811 1.22474219,2.90228811 C1.22056503,2.90228811 1.21805874,2.90228811 1.21638788,2.90228811 C-0.0543030303,2.89476923 0.0910620047,1.78364569 0.121137529,1.61071142 C0.129491841,1.62324289 0.139517016,1.63326807 0.14870676,1.6449641 C0.26399627,1.83377156 0.470347786,1.96159254 0.707610256,1.96159254 C1.07018741,1.96159254 1.36425921,1.66752075 1.36425921,1.30494359 C1.36425921,0.993327739 1.14621166,0.733508625 0.854646154,0.666674126 C0.79783683,0.643282051 0.737685781,0.624067133 0.674193007,0.614877389 C1.58731935,0.179617716 2.0058704,0.840443823 2.0058704,0.840443823 C3.92485594,-0.0676699301 5.44366993,0.87219021 5.44366993,0.87219021 C5.44366993,0.87219021 6.14543217,0.481208392 7.08529231,0.812874592 C7.67928392,1.02256783 8.56651189,1.38598042 9.37353846,0.788647086 C9.04354312,2.19718415 7.53224802,2.28490443 7.53224802,3.93237483 C7.53224802,4.67089604 8.20978275,5.14959814 8.79542005,5.14959814 C9.61163636,5.14959814 9.92074592,4.46287366 9.92074592,4.46287366 C10.2941837,5.30164662 9.80044382,5.74024802 9.59158601,5.88060047 C10.3635245,6.75111981 11.6985436,6.12788811 11.6985436,6.12788811 C11.6985436,6.12788811 11.7662135,6.49297156 11.5740643,6.85304242 C13.2156867,7.47376783 13.9884606,9.32341259 14.202331,10.0251748" id="path32906"></path>
            </g>
            <g id="g32908" transform="translate(15.124137, 7.458980)">
                <path d="M1.92447552,0.835431235 C2.44411375,1.59567366 2.58947879,2.73269557 2.66968019,3.22727086 C2.20518042,3.12534825 1.75738928,3.0384634 1.32881305,2.96411002 C1.18595431,2.42609231 0.780770163,1.26066573 0.121614918,0.402677855 C0.414015851,0.360070862 1.38395152,0.247287646 1.92447552,0.835431235" id="path32910"></path>
            </g>
            <g id="g32912" transform="translate(17.638635, 7.906691)">
                <path d="M1.92447552,0.835431235 C1.92865268,0.839608392 1.93199441,0.843785548 1.93533613,0.848798135 C2.51679627,1.62909091 2.74653986,2.90562984 2.8250704,3.50463403 C2.60284569,3.44197669 2.3839627,3.37848392 2.17176317,3.316662 C1.72982005,3.18800559 1.30542098,3.06603263 0.905249417,2.9607683 C0.872667599,2.66753193 0.692214452,1.30577902 0.112425175,0.223895571 C0.507584149,0.212199534 1.40316643,0.254806527 1.92447552,0.835431235" id="path32914"></path>
            </g>
            <g id="g32916" transform="translate(20.168790, 8.623734)">
                <path d="M2.50629371,3.34172494 C1.98164289,3.23562517 1.54304149,3.12868998 1.04261818,2.99502098 C1.01087179,2.64831702 0.957404196,1.14621166 0.221389277,0.0751888112 C0.52047366,0.152048485 1.04261818,0.258148252 1.48289044,0.627408858 C2.14705828,1.36175291 2.3884979,2.72684755 2.50629371,3.34172494" id="path32918"></path>
            </g>
            <g id="g32920" transform="translate(21.754522, 12.861876)">
                <path d="M1.67086247,0 C2.10695758,0.0676699301 2.50712914,0.116960373 2.9474014,0.140352448 C2.87471888,1.83961958 1.97746573,2.45199068 1.74103869,2.58315338 C1.2890704,2.78866946 0.771938462,2.70178462 0.502094172,2.63160839 C0.983302564,2.17546294 1.55640839,1.36927179 1.67086247,0" id="path32922"></path>
            </g>
            <g id="g32924" transform="translate(20.048002, 12.377502)">
                <path d="M1.08904429,0 C1.58779674,0.131998135 2.10325781,0.253971096 2.62707319,0.357564569 C2.50342937,2.09359068 1.62539114,2.73018928 1.28369977,2.91314872 C0.793301632,3.04514685 0.275334266,2.89894639 0.0848559441,2.83378275 C0.532647086,2.39768765 1.12580326,1.52633287 1.08904429,0" id="path32926"></path>
            </g>
            <g id="g32928" transform="translate(16.829245, 0.626905)">
                <path d="M6.68344988,3.34172494 C6.68344988,4.0226014 7.12372214,4.45368392 7.12372214,4.45368392 C7.93659674,4.5414042 8.12206247,3.84131282 8.12206247,3.84131282 C8.41112168,4.73522424 7.74862471,5.15377529 7.74862471,5.15377529 C7.74862471,5.15377529 7.41194592,5.5071627 7.51637483,6.05771189 C7.56566527,6.40608671 7.76533333,6.64585548 7.83718042,6.72187972 C7.99006434,6.91820606 8.09449324,7.07526713 8.35932494,7.27744149 C6.60241305,8.55899301 4.76947692,7.71854918 4.17214359,7.43366713 C3.40020513,6.56565408 3.80204755,5.56647832 3.80204755,5.56647832 C4.44616503,4.97833473 4.96663869,4.43279814 5.27574825,3.63830303 C5.61159161,2.77864429 4.56312541,1.71931748 3.63579674,2.7895049 C2.82542844,3.72435245 2.0835655,3.74690909 1.60235711,3.60154406 C1.85799907,3.56144336 2.05348998,3.34088951 2.05348998,3.07438695 C2.05348998,2.77864429 1.71931748,2.5489007 1.42441026,2.5489007 C0.286552914,2.54054639 0.286552914,1.64579953 0.320805594,1.33752541 C0.467006061,1.49792821 0.675863869,1.60068625 0.910620047,1.60068625 C1.3533986,1.60068625 1.7117986,1.24145082 1.7117986,0.799507692 C1.7117986,0.494575291 1.53969977,0.232249883 1.2890704,0.0969100233 C1.93318788,-0.0977454545 2.34923263,0.403513287 2.34923263,0.403513287 C4.26821818,-0.504600466 5.8146014,0.609864802 5.8146014,0.609864802 C5.8146014,0.609864802 6.37684662,-0.100251748 7.41111049,0.376779487 C8.22732681,0.752723543 8.81463497,0.232249883 8.81463497,0.232249883 C8.25322517,1.61739487 6.68344988,1.32332308 6.68344988,3.34172494" id="path32930"></path>
            </g>
            <g id="g32932" transform="translate(22.540245, 0.114627)">
                <path d="M11.6960373,2.50629371 C10.4136503,3.42109091 10.1037054,4.29745828 10.4529156,4.64750396 C10.7561772,4.94993007 11.432041,4.66170629 11.432041,4.66170629 C11.1154126,5.4804289 10.6174956,5.4804289 10.2707916,5.63331282 C8.40777995,6.45621259 8.36851469,8.50970256 7.65171469,9.72441958 C7.03349557,10.484662 5.78870303,11.741986 4.1270303,12.0385641 C3.10696876,12.2206881 1.9791366,12.1588662 0.916468065,11.9942862 C0.855481585,11.6033044 0.740192075,10.2649436 0.105264336,9.24154033 C0.984973427,9.31088112 1.9524028,9.15131375 2.97998322,8.43534918 C3.00588159,8.41780513 3.03177995,8.40026107 3.05684289,8.38188159 C3.0785641,8.36684382 3.09944988,8.3501352 3.1211711,8.334262 C3.18466387,8.28664242 3.24732121,8.23818741 3.30747226,8.18806154 C3.32083916,8.17720093 3.33420606,8.16634033 3.34757296,8.15547972 C3.41106573,8.10117669 3.47288765,8.04687366 3.53220326,7.9917352 C3.54724103,7.97753287 3.56311422,7.9650014 3.57815198,7.95079907 L3.57648112,7.94912821 C4.46203823,7.1011655 4.86555152,6.09864802 4.91484196,5.96414359 C6.96916737,6.13039441 8.40861538,4.36679907 8.6417007,3.9424 C9.04688485,3.20471422 8.34094545,2.47204103 7.301669,3.53972214 C6.23398788,4.63831422 5.44701166,4.04265175 5.14458555,3.71098555 C5.22395152,3.76027599 5.31751981,3.78951608 5.41777156,3.78951608 C5.70265361,3.78951608 5.93323263,3.55893706 5.93323263,3.27405501 C5.93323263,3.04013427 5.75277949,2.78783403 5.41777156,2.75942937 C5.41860699,2.75859394 5.41526527,2.75942937 5.41442984,2.75942937 C4.05434779,2.56310303 4.5146704,1.48038415 4.5146704,1.48038415 C4.51550583,1.48121958 4.51634126,1.48205501 4.51801212,1.48289044 C4.6458331,1.72015291 4.89395618,1.88389744 5.18301538,1.88389744 C5.60156643,1.88389744 5.94158695,1.54387692 5.94158695,1.12532587 C5.94158695,0.862165035 5.80708252,0.630750583 5.60407273,0.494575291 C6.1997352,0.373437762 6.64836177,0.666674126 6.64836177,0.666674126 C8.67261166,0.0258983683 10.3902583,0.837102098 10.3902583,0.837102098 C10.3902583,0.837102098 11.1496653,0.258148252 12.2181818,0.591485315 C13.2633063,0.917303497 13.892386,0.174605128 13.892386,0.174605128 C13.6100103,1.68422937 12.4621277,1.95992168 11.6960373,2.50629371" id="path32934"></path>
            </g>
            <g id="g32936" transform="translate(33.652376, 19.023960)">
                <path d="M0.581818182,1.92447552 C0.56678042,1.91194406 0.963610256,1.75488298 1.39719907,1.36891375 L0.670373893,0.610342191 C1.01457156,0.365560839 1.28608671,0.0188568765 1.28608671,0.0188568765 L2.05551888,0.818364569 C2.43731096,0.54852028 2.80657156,0.0113379953 2.82578648,0.00548997669 C3.54091562,3.30962051 6.18756177,3.72984242 6.18756177,3.72984242 C6.18756177,3.72984242 3.83582284,4.59284289 0.581818182,1.92447552" id="path32938"></path>
            </g>
            <g id="g32940" transform="translate(23.971005, 9.747645)">
                <path d="M8.35431235,10.0251748 C8.35097063,10.0251748 8.3476289,10.0251748 8.34428718,10.0251748 C7.23650536,10.0251748 6.13707786,9.1713641 6.13707786,7.95497622 C6.13707786,7.17635431 6.81461259,6.32922704 7.84804103,6.32922704 C8.69683916,6.32922704 9.06526434,6.99840746 9.06526434,6.99840746 C9.06526434,6.99840746 9.05189744,7.55062751 8.72273753,7.81462378 C8.72273753,7.81462378 8.47461445,7.57318415 8.17218834,7.57318415 C7.86391422,7.57318415 7.66508159,7.76282704 7.66508159,8.0452028 C7.66508159,8.35180606 8.06358228,8.53142378 8.31755338,8.53142378 C9.17470583,8.53142378 9.53811841,7.72857436 9.53811841,6.83884009 C9.53811841,5.59906014 8.24988345,4.62828904 7.07108998,4.62828904 C7.03349557,4.62828904 7.07526713,4.63079534 7.03850816,4.63330163 C5.09696597,4.63330163 3.81290816,6.54894545 0.272350583,5.90232168 C0.272350583,5.90232168 1.27403263,5.20724289 1.45030862,3.28240932 C1.45030862,3.28240932 1.98414918,3.29076364 2.70429091,3.16461352 C3.93153939,2.94990769 5.43615105,2.41356084 6.69263963,0.501258741 C7.87393939,0.728496037 11.7202648,2.38181445 11.7202648,6.13707786 C11.7202648,7.49883077 10.7971133,10.0251748 8.35431235,10.0251748" id="path32942"></path>
            </g>
        </g>
    </g>
</svg>