<?xml version="1.0" encoding="UTF-8"?>
<svg width="16px" height="24px" viewBox="0 0 16 24" version="1.1" xmlns="http://www.w3.org/2000/svg" xmlns:xlink="http://www.w3.org/1999/xlink">
    <!-- Generator: Sketch 57.1 (83088) - https://sketch.com -->
    <title>Group 5 Copy</title>
    <desc>Created with Sketch.</desc>
    <g id="Page-1" stroke="none" stroke-width="1" fill="none" fill-rule="evenodd">
        <g id="Artboard" transform="translate(-36.000000, -415.000000)">
            <g id="Group-5" transform="translate(16.000000, 400.000000)">
                <g id="Group-5-Copy" transform="translate(16.000000, 16.000000)">
                    <rect id="Rectangle" x="0" y="0" width="24" height="24"></rect>
                    <g id="mic" transform="translate(5.000000, 0.000000)" stroke="#C72E2A" stroke-linecap="round" stroke-linejoin="round" stroke-width="2">
                        <path d="M7,0 C5.34314575,0 4,1.34314575 4,3 L4,11 C4,12.6568542 5.34314575,14 7,14 C8.65685425,14 10,12.6568542 10,11 L10,3 C10,1.34314575 8.65685425,0 7,0 Z" id="Path"></path>
                        <path d="M14,9 L14,11 C14,14.8659932 10.8659932,18 7,18 C3.13400679,18 -1.77635684e-15,14.8659932 -1.77635684e-15,11 L-1.77635684e-15,9" id="Path"></path>
                        <path d="M7,18 L7,22" id="Path"></path>
                        <path d="M3,22 L11,22" id="Path"></path>
                    </g>
                </g>
            </g>
        </g>
    </g>
</svg>