<?xml version="1.0" encoding="UTF-8"?>
<svg width="24px" height="20px" viewBox="0 0 24 20" version="1.1" xmlns="http://www.w3.org/2000/svg" xmlns:xlink="http://www.w3.org/1999/xlink">
    <!-- Generator: Sketch 57.1 (83088) - https://sketch.com -->
    <title>Group 3</title>
    <desc>Created with Sketch.</desc>
    <g id="Page-1" stroke="none" stroke-width="1" fill="none" fill-rule="evenodd">
        <g id="Artboard" transform="translate(-33.000000, -1157.000000)">
            <g id="Group-4-Copy" transform="translate(16.000000, 1042.000000)">
                <g id="Group-4" transform="translate(0.000000, 32.000000)">
                    <g id="Group-2-Copy-3" transform="translate(0.000000, 64.000000)">
                        <g id="Group-3" transform="translate(16.000000, 16.000000)">
                            <rect id="Rectangle" x="0" y="0" width="24" height="24"></rect>
                            <g id="twitter" transform="translate(2.000000, 3.000000)" stroke="#757575" stroke-linecap="round" stroke-linejoin="round" stroke-width="2">
                                <path d="M22,1 C21.042385,1.67547741 19.9821079,2.19210925 18.86,2.53 C17.6263595,1.11153779 15.63837,0.614114311 13.8820815,1.28445343 C12.125793,1.95479256 10.9748003,3.65030087 11,5.53 L11,6.53 C7.43066483,6.6225524 4.05202531,4.92197051 2,2 C2,2 -2,11 7,15 C4.94052756,16.3979663 2.48715691,17.0989294 1.11022302e-15,17 C9,22 20,17 20,5.5 C19.9990791,5.22145364 19.9722975,4.9435944 19.92,4.67 C20.9406031,3.66349308 21.6608274,2.39271279 22,1 Z" id="Path"></path>
                            </g>
                        </g>
                    </g>
                </g>
            </g>
        </g>
    </g>
</svg>