<?xml version="1.0" encoding="UTF-8"?>
<svg width="56px" height="56px" viewBox="0 0 56 56" version="1.1" xmlns="http://www.w3.org/2000/svg" xmlns:xlink="http://www.w3.org/1999/xlink">
    <!-- Generator: Sketch 54.1 (76490) - https://sketchapp.com -->
    <title>logo</title>
    <desc>Created with Sketch.</desc>
    <g id="Page-1" stroke="none" stroke-width="1" fill="none" fill-rule="evenodd">
        <g id="logo" fill="#000000" fill-rule="nonzero">
            <path d="M4,0 L52,0 C54.209139,-4.05812251e-16 56,1.790861 56,4 L56,52 C56,54.209139 54.209139,56 52,56 L4,56 C1.790861,56 2.705415e-16,54.209139 0,52 L0,4 C-2.705415e-16,1.790861 1.790861,4.05812251e-16 4,0 Z M12,21 L12,35.24 L17.24,35.24 C19.573345,35.24 21.3833269,34.6166729 22.67,33.37 C23.9566731,32.1233271 24.6,30.366678 24.6,28.1 C24.6,25.8466554 23.9566731,24.1000062 22.67,22.86 C21.3833269,21.6199938 19.573345,21 17.24,21 L12,21 Z M34.9,30.32 L34.9,29.94 C34.9,28.3666588 34.4966707,27.1300045 33.69,26.23 C32.8833293,25.3299955 31.7866736,24.88 30.4,24.88 C29.4533286,24.88 28.6066704,25.1033311 27.86,25.55 C27.1133296,25.9966689 26.5333354,26.619996 26.12,27.42 C25.7066646,28.220004 25.5,29.1333282 25.5,30.16 C25.5,31.7866748 25.9733286,33.066662 26.92,34 C27.8666714,34.933338 29.1666584,35.4 30.82,35.4 C31.5400036,35.4 32.2499965,35.2833345 32.95,35.05 C33.6500035,34.8166655 34.2399976,34.5066686 34.72,34.12 L34,32.4 C33.0533286,33.1200036 32.0266722,33.48 30.92,33.48 C29.9599952,33.48 29.2366691,33.2233359 28.75,32.71 C28.2633309,32.1966641 27.9933336,31.4000054 27.94,30.32 L34.9,30.32 Z M42.92,25.16 L39.96,32.4 L37.06,25.16 L34.44,25.16 L38.8,35.24 L40.98,35.24 L45.4,25.16 L42.92,25.16 Z M17.08,33.14 L14.58,33.14 L14.58,23.1 L17.08,23.1 C20.3600164,23.1 22,24.76665 22,28.1 C22,31.4600168 20.3600164,33.14 17.08,33.14 Z M30.46,26.68 C31.12667,26.68 31.6499981,26.8733314 32.03,27.26 C32.4100019,27.6466686 32.6399996,28.2199962 32.72,28.98 L28.02,28.98 C28.1400006,28.2333296 28.4099979,27.6633353 28.83,27.27 C29.2500021,26.8766647 29.79333,26.68 30.46,26.68 Z" id="Combined-Shape"></path>
        </g>
    </g>
</svg>